# Blender v2.90.1 OBJ File: ''
# www.blender.org
mtllib untitled.mtl
o Zylinder
v 0.000000 -1.000000 -1.000000
v 0.000000 0.000000 -0.971133
v 0.866025 -1.000000 -0.500000
v 0.841025 0.000000 -0.485566
v 0.866025 -1.000000 0.500000
v 0.841025 0.000000 0.485566
v -0.000000 -1.000000 1.000000
v -0.000000 0.000000 0.971133
v -0.866025 -1.000000 0.500000
v -0.841025 0.000000 0.485566
v -0.866025 -1.000000 -0.500000
v -0.841025 0.000000 -0.485566
v 0.866025 0.000000 -0.500000
v 0.000000 0.000000 -1.000000
v 0.866025 0.000000 0.500000
v -0.000000 0.000000 1.000000
v -0.866025 0.000000 0.500000
v -0.866025 0.000000 -0.500000
vt 0.451846 0.366536
vt 0.250000 0.483072
vt 0.048154 0.366536
vt 0.048154 0.133464
vt 0.250000 0.016928
vt 0.451846 0.133464
vt 0.750000 0.490000
vt 0.957846 0.370000
vt 0.957846 0.130000
vt 0.750000 0.010000
vt 0.542154 0.130000
vt 0.542154 0.370000
vt 0.457846 0.370000
vt 0.250000 0.490000
vt 0.457846 0.130000
vt 0.250000 0.010000
vt 0.042154 0.130000
vt 0.042154 0.370000
vt 1.000000 0.500000
vt 1.000000 1.000000
vt 0.833333 1.000000
vt 0.833333 0.500000
vt 0.666667 1.000000
vt 0.666667 0.500000
vt 0.500000 1.000000
vt 0.500000 0.500000
vt 0.333333 1.000000
vt 0.333333 0.500000
vt 0.166667 1.000000
vt 0.166667 0.500000
vt -0.000000 1.000000
vt -0.000000 0.500000
vn 0.0000 1.0000 0.0000
vn 0.0000 -1.0000 0.0000
vn 0.5000 0.0000 -0.8660
vn 1.0000 0.0000 0.0000
vn 0.5000 0.0000 0.8660
vn -0.5000 0.0000 0.8660
vn -1.0000 0.0000 0.0000
vn -0.5000 0.0000 -0.8660
usemtl whilte
s off
f 4/1/1 2/2/1 12/3/1 10/4/1 8/5/1 6/6/1
f 1/7/2 3/8/2 5/9/2 7/10/2 9/11/2 11/12/2
usemtl black
f 2/2/1 4/1/1 13/13/1 14/14/1
f 4/1/1 6/6/1 15/15/1 13/13/1
f 6/6/1 8/5/1 16/16/1 15/15/1
f 8/5/1 10/4/1 17/17/1 16/16/1
f 10/4/1 12/3/1 18/18/1 17/17/1
f 12/3/1 2/2/1 14/14/1 18/18/1
usemtl black2
f 1/19/3 14/20/3 13/21/3 3/22/3
f 3/22/4 13/21/4 15/23/4 5/24/4
f 5/24/5 15/23/5 16/25/5 7/26/5
f 7/26/6 16/25/6 17/27/6 9/28/6
f 9/28/7 17/27/7 18/29/7 11/30/7
f 11/30/8 18/29/8 14/31/8 1/32/8
